<svg viewBox="0 0 64 64" xmlns="http://www.w3.org/2000/svg">
<title>G-mail</title>
<g transform="translate(0 8)"><g class="Prim.cls"><g transform="translate(0.0004013928757586882 0.21303960028093982)"><path d="M 59.972 46.69 L 4.016 46.69 C 1.83 46.69 0 44.96 0 42.726 L 0 4.012 C 0.0044 1.7965 1.8005 0.0022 4.016 0 L 59.972 0 C 62.158 0 63.988 1.8 63.988 4.016 L 63.988 42.676 C 63.938 44.964 62.158 46.692 59.972 46.692 Z" stroke="none" fill="#f2f2f2" fill-rule="nonzero" stroke-width="2"></path></g><g transform="translate(7.3504094037400165 10.62905236425799)"><path d="M 0.65 36.274 L 24.59 18.754 L 24.742 17.738 L 0.05 0 L 0 35.41 Z" stroke="none" fill="#221f1f" opacity="0.1" fill-rule="nonzero" stroke-width="2"></path></g><g transform="translate(0.0004013928757586882 1.5330583685914867)"><path d="M 4.016 45.37 C 1.8 45.37 0 43.64 0 41.406 L 0 2.64 C 0 0.404 1.8 0 4.016 0 C 6.232 0 8.032 0.46 8.032 2.64 L 8.032 45.368 Z" stroke="none" fill="#d44c3d" fill-rule="nonzero" stroke-width="2"></path></g><g transform="translate(2.842170943040401e-14 1.5810472601930492)"><path d="M 4.0164 0.56 C 6.8624 0.56 7.4224 1.424 7.4224 2.592 L 7.4224 44.76 L 4.0164 44.76 C 2.1364 44.76 0.6104 43.236 0.6104 41.354 L 0.6104 2.592 C 0.5604 1.392 1.1704 0.56 4.0164 0.56 Z M 4.0164 0 C 1.8004 0.002 0.0004 0.458 0.0004 2.592 L 0.0004 41.304 C -0.0148 42.3737 0.4034 43.4041 1.1599 44.1605 C 1.9163 44.917 2.9467 45.3352 4.0164 45.32 L 8.0324 45.32 L 8.0324 2.592 C 8.0004 0.408 6.2524 0.002 4.0164 0.002 Z M 59.9724 0.56 C 62.5644 0.56 63.3784 1.068 63.3784 2.492 L 63.3784 41.408 C 63.3784 43.288 61.8544 44.814 59.9724 44.814 L 56.5664 44.814 L 56.5664 2.492 C 56.5164 1.018 57.3804 0.56 59.9724 0.56 Z M 59.9724 0 C 57.7364 0 55.9564 0.304 55.9564 2.49 L 55.9564 45.37 L 59.9724 45.37 C 62.2084 45.37 63.9884 43.57 63.9884 41.354 L 63.9884 2.44 C 63.9384 0.254 62.1584 0 59.9724 0 Z" stroke="none" fill="#d44c3d" fill-rule="nonzero" stroke-width="2"></path></g><g transform="translate(55.95640839665994 1.5830499762575023)"><path d="M 4.016 45.32 L 0 45.32 L 0 2.49 C 0 0.254 1.8 0 4.016 0 C 6.232 0 8.032 0.304 8.032 2.49 L 8.032 41.406 C 7.9851 43.5877 6.1982 45.3292 4.016 45.32 Z" stroke="none" fill="#d44c3d" fill-rule="nonzero" stroke-width="2"></path></g><g transform="translate(0.35642899602517275 4.733055316833674)"><path d="M 42.488 42.17 L 0 1.14 L 2.236 2.054 L 31.836 23.348 L 63.63 0 L 63.63 38.256 C 63.6258 39.3151 63.1996 40.3288 62.4459 41.0727 C 61.6922 41.8167 60.673 42.2296 59.614 42.22 Z" stroke="none" fill="#221f1f" opacity="0.08" fill-rule="nonzero" stroke-width="2"></path></g><g transform="translate(0.011944751811711285 -3.197442310920451e-14)"><path d="M 31.9085 29.4331 L 1.7165 7.5291 C -0.0835 6.2091 -0.5715 3.669 0.7505 1.889 C 2.0725 0.1091 4.6105 -0.2969 6.4425 1.0251 L 31.9565 19.5751 L 57.6225 0.775 C 59.4225 -0.545 61.8925 -0.1389 63.2125 1.689 C 64.5325 3.489 64.1265 5.959 62.2985 7.279 Z" stroke="none" fill="#d44c3d" fill-rule="nonzero" stroke-width="2"></path></g><g transform="translate(0.0074767756917886175 0.0030405158082835726)"><path d="M 59.9649 0.614 C 61.0329 0.614 62.0989 1.122 62.761 2.038 C 63.829 3.562 63.521 5.698 62.0009 6.838 L 31.9129 28.72 L 2.0769 7.07 C 0.5529 5.95 0.1449 3.764 1.193 2.27 C 1.8029 1.356 2.8729 0.796 4.0389 0.796 C 4.7989 0.796 5.5129 1 6.0709 1.456 L 31.5309 19.956 L 31.8869 20.16 L 32.243 19.956 L 57.8829 1.17 C 58.5429 0.814 59.2029 0.61 59.967 0.61 Z M 59.9649 0.004 C 59.151 0.004 58.2849 0.208 57.6249 0.764 L 31.9609 19.57 L 6.3969 0.97 C 5.7369 0.462 4.873 0.21 4.0089 0.21 C 2.7389 0.26 1.4689 0.82 0.7049 1.89 C -0.5651 3.69 -0.0551 6.16 1.7209 7.48 L 31.9129 29.43 L 62.3029 7.27 C 64.0816 5.968 64.4882 3.4807 63.2169 1.68 C 62.4029 0.612 61.1849 0 59.9649 0 Z" stroke="none" fill="#d44c3d" fill-rule="nonzero" stroke-width="2"></path></g></g></g>
</svg>