<svg viewBox="0 0 64 64" xmlns="http://www.w3.org/2000/svg">
<title>LinkedIn</title>
<g transform="translate(0 0)" ><path d="M 7.4359710393496 0 C 9.3353452169758 0 10.8225194587553 0.6290997211526 11.9031841004458 1.881323861373 C 12.9837489116844 3.1337471783296 13.5629651935402 4.7137166378967 13.6409327764649 6.6066923383349 C 13.6409327764649 8.4763643606427 13.0338637985323 10.0535453459036 11.8111404238048 11.3349488779711 C 10.5886167099811 12.6136635241004 8.9175547758234 13.2544150843182 6.803844617993 13.2544150843182 L 6.7284726268174 13.2544150843182 C 4.664877355835 13.2544150843182 3.0300538757127 12.6136635241004 1.8130208367428 11.3349488779711 C 0.6098642305854 10.0535453459036 0 8.4763643606427 0 6.6066923383349 C 0 4.6844376576816 0.6627743700862 3.1043686097464 1.999603951322 1.8609082459169 C 3.3365333630097 0.6203359447617 5.1522496219535 0 7.4359710393496 0 Z M 0.7993424282694 18.5036183773735 L 13.8414921543084 18.5036183773735 L 13.8414921543084 56.9970123489577 L 0.7993424282694 56.9970123489577 L 0.7993424282694 18.5036183773735 Z M 61 34.9267361572168 L 61 56.9970123489577 L 47.9606455266138 56.9970123489577 L 47.9606455266138 36.4102044881158 C 47.9606455266138 33.7915283494888 47.4481159866194 31.6935997875448 46.4288470728402 30.0960031868278 C 45.4150688339149 28.5131456645864 43.7190492867851 27.7202230779445 41.3240169155336 27.7202230779445 C 39.4998150681793 27.7202230779445 38.0349030171708 28.2059155490639 36.9431571953207 29.1831762050193 C 35.8486161208178 30.1546607356261 35.0548641978541 31.2283229318816 34.5759775201461 32.4075487983004 C 34.4199425238447 32.8346833089895 34.322308341898 33.3057362900013 34.269597863301 33.8294715177267 C 34.2194829764531 34.3444429690612 34.1971209552301 34.9033328907184 34.1971209552301 35.4915017925906 L 34.1971209552301 57 L 21.0770036462663 57 C 21.1326092079681 50.4868211392909 21.1632571566978 44.5120169964148 21.1632571566978 39.0933143008897 L 21.1632571566978 32.2495020581596 L 21.1632571566978 26.0319014739079 C 21.1632571566978 24.1388261851016 21.1438900490315 22.5237020316027 21.113042439398 21.183640950737 C 21.0964705843846 19.8553312973045 21.0770036462663 18.9570442172354 21.0770036462663 18.5036183773735 L 34.1971209552301 18.5036183773735 L 34.1971209552301 23.9544881157881 L 34.1247438776111 24.1125348559288 L 34.1971209552301 24.1125348559288 L 34.1971209552301 23.9544881157881 C 34.6037303857711 23.2845571637233 35.1245458532721 22.5852476430753 35.7594675272815 21.8507834284956 C 36.4028747897014 21.1193068649582 37.1714694387892 20.4346368344177 38.1071802643379 19.8026490505909 C 39.03460516238 19.1764373921126 40.1515082581059 18.6614659407781 41.460385312813 18.2430952064799 C 42.7777479559306 17.8305005975302 44.2760033778697 17.6257469127606 45.983203935611 17.6257469127606 C 48.1054995123037 17.6257469127606 50.0883319477085 17.9651440711725 51.9375912384868 18.6468264506706 C 53.7813598544112 19.3286084185367 55.3659686172337 20.3965940778117 56.713979209081 21.8537710795379 C 58.0535042125178 23.3020847165051 59.1034210750267 25.1044350019918 59.8666248797125 27.2579338733236 C 60.6268337708417 29.4055570309388 61 31.9627871464613 61 34.9267361572168 Z" fill="#00679B" fill-opacity="1" stroke="none" stroke-dasharray="none" stroke-linecap="round" stroke-linejoin="round" stroke-opacity="1"></path></g>
</svg>