<?xml version="1.0" standalone="no"?>
<!DOCTYPE svg PUBLIC "-//W3C//DTD SVG 20010904//EN"
 "http://www.w3.org/TR/2001/REC-SVG-20010904/DTD/svg10.dtd">
<svg version="1.0" xmlns="http://www.w3.org/2000/svg"
 width="318.000000pt" height="318.000000pt" viewBox="0 0 318.000000 318.000000"
 preserveAspectRatio="xMidYMid meet">
<metadata>
Created by potrace 1.14, written by Peter Selinger 2001-2017
</metadata>
<g transform="translate(0.000000,318.000000) scale(0.100000,-0.100000)"
fill="#000000" stroke="none">
<path d="M1460 3169 c-121 -12 -245 -36 -325 -64 -254 -87 -423 -188 -602
-358 l-74 -70 34 -31 c18 -17 57 -53 85 -79 l53 -48 42 43 c251 253 598 392
952 381 428 -13 816 -232 1063 -600 23 -34 42 -66 42 -72 0 -5 3 -11 8 -13 19
-8 104 -210 132 -316 42 -158 57 -371 36 -527 -10 -75 -42 -213 -64 -275 l-19
-55 -334 -3 -334 -2 0 641 c0 352 -2 644 -5 648 -7 9 -214 9 -220 0 -3 -4 -5
-233 -5 -508 0 -275 -3 -497 -6 -493 -4 4 -112 169 -239 367 -227 351 -273
423 -364 563 l-44 67 -518 0 -519 0 -42 -85 c-125 -253 -181 -584 -148 -875
10 -85 54 -284 71 -319 8 -16 14 -35 14 -42 0 -23 76 -186 125 -269 95 -162
243 -333 380 -439 33 -26 65 -50 70 -54 6 -5 46 -30 89 -56 278 -169 616 -245
946 -213 349 34 668 181 922 425 69 67 93 101 71 102 -5 1 -39 30 -78 65 -38
36 -74 65 -79 65 -5 0 -25 -17 -45 -38 -165 -174 -435 -324 -661 -367 -14 -3
-36 -7 -49 -10 -160 -32 -378 -24 -554 21 -399 101 -721 379 -888 765 -37 84
-82 237 -93 312 -3 20 -9 54 -12 75 -11 61 -7 271 5 357 14 90 53 238 82 305
l19 45 353 -1 c193 -1 354 -2 357 -3 3 0 5 -202 4 -448 -1 -486 -2 -503 -55
-547 -43 -36 -88 -47 -229 -53 -69 -3 -128 -8 -132 -12 -6 -5 -11 -134 -9
-205 1 -18 8 -19 149 -13 207 8 322 46 403 134 92 100 105 169 104 560 0 200
3 299 10 292 9 -9 252 -383 517 -796 l123 -193 499 3 500 2 39 90 c86 200 128
396 130 615 2 173 -8 267 -44 412 -51 202 -131 375 -251 545 -60 86 -239 275
-306 324 -19 13 -39 29 -45 34 -26 23 -116 80 -192 120 -254 137 -565 201
-845 174z"/>
</g>
</svg>
