<?xml version="1.0" encoding="UTF-8"?>
<svg viewBox="0 0 81 81" xmlns="http://www.w3.org/2000/svg">
<title>Linux</title>
<g>
<path fill="#fff" d="m40 0c-22.138 0-40 17.862-40 40 0 22.138 17.862 40 40 40 22.138 0 40-17.862 40-40 0-22.138-17.862-40-40-40zm34.235 37.212h-7.8205c-0.3779-6.143-1.6775-11.908-3.8984-16.94 1.2995-0.7559 2.5991-1.4886 3.733-2.4099 4.4656 5.1978 7.4425 11.908 7.9859 19.35zm-11.152-22.705c-0.7561 0.5672-1.6775 1.1106-2.5989 1.6775-1.4885-2.5989-3.355-5.0323-5.2215-7.0643 2.7878 1.4886 5.3867 3.1423 7.8204 5.3868zm-20.295-7.2533c5.3868 1.1104 10.23 5.0326 13.585 10.797-4.0872 1.6776-8.7418 2.7882-13.585 3.1661v-13.963zm0 18.594c5.576-0.3782 10.986-1.4886 15.641-3.733 1.8666 4.4654 2.9769 9.4977 3.3549 14.885h-18.972l-0.0235-11.152zm18.996 16.94c-0.378 5.5758-1.4883 10.797-3.5441 15.074-4.6544-2.0555-9.8522-3.5441-15.452-3.8985v-11.341h18.972v0.1655zm-43.544 0h18.972v11.341c-5.5758 0.378-10.986 1.4886-15.641 3.7331-1.843-4.4655-2.9771-9.6633-3.3313-15.074zm0-5.576c0.3779-5.5758 1.4883-10.797 3.5438-15.074 4.6546 2.0555 9.8524 3.544 15.452 3.8985v11.341h-18.972v-0.1654zm18.972-29.959v13.963c-4.8434-0.3779-9.3088-1.4885-13.396-3.355 3.3551-5.5996 8.1749-9.498 13.396-10.608zm-12.475 1.8665c-1.8665 1.8665-3.5438 4.0875-5.0324 6.7099-0.9213-0.5669-1.6775-1.1103-2.4099-1.6773 2.2445-1.8903 4.8434-3.733 7.4423-5.0326zm-10.797 8.3639c1.1105 0.9214 2.4099 1.6775 3.544 2.4099-2.2445 5.0324-3.733 10.986-4.0875 17.318h-7.8204c0.7324-7.4423 3.7095-14.341 8.3639-19.728zm-0.3545 25.304c0.3782 6.1429 1.6776 11.908 3.8985 16.94-1.2996 0.7561-2.5989 1.4885-3.733 2.4099-4.4654-5.3868-7.4425-12.097-8.0095-19.35h7.844zm3.3316 22.705c0.7559-0.5672 1.6773-1.1106 2.5989-1.6776 1.4883 2.5989 3.3548 5.0324 5.2213 7.0644-2.7879-1.4648-5.3868-3.3313-7.8202-5.3868zm6.7099-3.7095c4.0874-1.6776 8.7418-2.7879 13.585-3.1659v13.963c-5.4103-0.9449-10.041-4.8434-13.585-10.797zm19.161 10.963v-13.964c4.8434 0.3782 9.3088 1.4886 13.396 3.3551-3.3313 5.5995-8.1746 9.498-13.396 10.608zm17.508-8.5529c0.9213 0.5672 1.6773 1.1106 2.4099 1.6775-2.2447 2.0555-4.8436 3.7095-7.4425 5.0326 1.8665-1.8665 3.544-4.3002 5.0326-6.7101zm5.7647-1.6775c-1.1103-0.9214-2.4099-1.6776-3.544-2.41 2.2447-5.0323 3.733-10.986 4.0874-17.318h8.0095c-0.9214 7.4423-3.8983 14.341-8.5529 19.728z"/>
</g>
</svg>
