<svg viewBox="0 0 81 81">
<g transform="translate(0.5 0.5)" v:size="81,81,0.5,0.5"><path d="M 40 0 C 17.8617 0 0 17.8617 0 40 C 0 62.1381 17.8617 80 40 80 C 62.1381 80 80 62.1381 80 40 C 80 17.8617 62.1381 0 40 0 Z M 74.235 37.2119 L 66.4145 37.2119 C 66.0366 31.0689 64.737 25.3042 62.5161 20.2716 C 63.8156 19.5157 65.1152 18.783 66.2491 17.8617 C 70.7147 23.0595 73.6916 29.7696 74.235 37.2119 Z M 63.0832 14.5066 C 62.3271 15.0738 61.4057 15.6172 60.4843 16.1841 C 58.9958 13.5852 57.1293 11.1518 55.2628 9.1198 C 58.0506 10.6084 60.6495 12.2621 63.0832 14.5066 Z M 42.7879 7.2533 C 48.1747 8.3637 53.0183 12.2859 56.3731 18.0506 C 52.2859 19.7282 47.6313 20.8388 42.7879 21.2167 L 42.7879 7.2533 Z M 42.7879 25.8476 C 48.3639 25.4694 53.7742 24.359 58.4288 22.1146 C 60.2954 26.58 61.4057 31.6123 61.7837 36.9994 L 42.8114 36.9994 L 42.7879 25.8476 L 42.7879 25.8476 Z M 61.7837 42.7879 C 61.4057 48.3637 60.2954 53.5852 58.2396 57.8617 C 53.5852 55.8062 48.3874 54.3176 42.7879 53.9632 L 42.7879 42.6224 L 61.7601 42.6224 L 61.7601 42.7879 Z M 18.2399 42.7879 L 37.2119 42.7879 L 37.2119 54.1286 C 31.6361 54.5066 26.2256 55.6172 21.5712 57.8617 C 19.7282 53.3962 18.5941 48.1984 18.2399 42.7879 Z M 18.2399 37.2119 C 18.6178 31.6361 19.7282 26.4145 21.7837 22.1381 C 26.4383 24.1936 31.6361 25.6821 37.2356 26.0366 L 37.2356 37.3773 L 18.2634 37.3773 L 18.2634 37.2119 Z M 37.2119 7.2533 L 37.2119 21.2167 C 32.3685 20.8388 27.9031 19.7282 23.8156 17.8617 C 27.1707 12.2621 31.9905 8.3637 37.2119 7.2533 Z M 24.737 9.1198 C 22.8705 10.9863 21.1932 13.2073 19.7046 15.8297 C 18.7833 15.2628 18.0271 14.7194 17.2947 14.1524 C 19.5392 12.2621 22.1381 10.4194 24.737 9.1198 Z M 13.9397 17.4837 C 15.0502 18.4051 16.3496 19.1612 17.4837 19.8936 C 15.2392 24.926 13.7507 30.88 13.3962 37.2119 L 5.5758 37.2119 C 6.3082 29.7696 9.2853 22.8705 13.9397 17.4837 Z M 13.5852 42.7879 C 13.9634 48.9308 15.2628 54.6958 17.4837 59.7282 C 16.1841 60.4843 14.8848 61.2167 13.7507 62.1381 C 9.2853 56.7513 6.3082 50.0412 5.7412 42.7879 L 13.5852 42.7879 Z M 16.9168 65.4932 C 17.6727 64.926 18.5941 64.3826 19.5157 63.8156 C 21.004 66.4145 22.8705 68.848 24.737 70.88 C 21.9491 69.4152 19.3502 67.5487 16.9168 65.4932 Z M 23.6267 61.7837 C 27.7141 60.1061 32.3685 58.9958 37.2119 58.6178 L 37.2119 72.581 C 31.8016 71.6361 27.1707 67.7376 23.6267 61.7837 Z M 42.7879 72.7465 L 42.7879 58.783 C 47.6313 59.1612 52.0967 60.2716 56.1841 62.1381 C 52.8528 67.7376 48.0095 71.6361 42.7879 72.7465 Z M 60.2954 64.1936 C 61.2167 64.7608 61.9727 65.3042 62.7053 65.8711 C 60.4606 67.9266 57.8617 69.5806 55.2628 70.9037 C 57.1293 69.0372 58.8068 66.6035 60.2954 64.1936 Z M 66.0601 62.5161 C 64.9498 61.5947 63.6502 60.8385 62.5161 60.1061 C 64.7608 55.0738 66.2491 49.1198 66.6035 42.7879 L 74.613 42.7879 C 73.6916 50.2302 70.7147 57.1293 66.0601 62.5161 Z" fill="#000" stroke="none"></path></g>
</svg>
